<?xml version="1.0" standalone="no"?>
<svg viewBox="0 0 200 200" xmlns="http://www.w3.org/2000/svg">
  <path fill="#F7F2DF" d="M44.6,-78.3C58,-69.5,69.2,-58,76.1,-44.5C83,-31,85.6,-15.5,86.1,0.3C86.6,16.1,85.1,32.2,78,45.2C70.8,58.3,58,68.4,44.1,76.4C30.2,84.5,15.1,90.5,0.2,90.2C-14.7,89.8,-29.4,83.1,-43,74.9C-56.6,66.6,-69.2,56.9,-77.2,44.2C-85.2,31.5,-88.7,15.7,-89.3,-0.3C-89.9,-16.4,-87.6,-32.9,-80.4,-46.9C-73.2,-61,-60.9,-72.6,-46.7,-80.9C-32.4,-89.2,-16.2,-94,-0.3,-93.5C15.6,-93,31.2,-87,44.6,-78.3Z" transform="translate(100 100)" />
</svg>
