<?xml version="1.0" standalone="no"?>
<svg viewBox="0 0 200 200" xmlns="http://www.w3.org/2000/svg">
  <path fill="#F7F2DF" d="M44.3,-75.8C58,-68.9,69.9,-58.1,78.6,-44.8C87.3,-31.5,92.9,-15.8,92,-0.5C91.2,14.8,84,29.6,75.9,43.8C67.7,58.1,58.5,71.8,45.7,80.6C32.9,89.5,16.4,93.6,0.1,93.4C-16.2,93.2,-32.5,88.8,-45.2,79.9C-58,71,-67.3,57.6,-75.4,43.6C-83.4,29.5,-90.1,14.8,-91.1,-0.5C-92,-15.8,-87.2,-31.7,-78.8,-45.1C-70.3,-58.4,-58.3,-69.3,-44.6,-76.2C-30.9,-83.1,-15.4,-85.9,0,-85.8C15.3,-85.8,30.7,-82.8,44.3,-75.8Z" transform="translate(100 100)" />
</svg>
